<?xml version="1.0" encoding="UTF-8"?>
<svg id="Layer_1" xmlns="http://www.w3.org/2000/svg" xmlns:xlink="http://www.w3.org/1999/xlink" viewBox="0 0 481.26 318.12">
  <defs>
    <style>
      .cls-1 {
        fill: #fff;
      }

      .cls-2 {
        fill: none;
      }

      .cls-3 {
        clip-path: url(#clippath-1);
      }

      .cls-4 {
        fill: #dc0d19;
      }

      .cls-5 {
        clip-path: url(#clippath);
      }
    </style>
    <clipPath id="clippath">
      <rect id="SVGID" class="cls-2" width="481.23" height="318.12"/>
    </clipPath>
    <clipPath id="clippath-1">
      <rect id="SVGID-2" data-name="SVGID" class="cls-2" width="481.23" height="318.12"/>
    </clipPath>
  </defs>
  <g class="cls-5">
    <g class="cls-3">
      <path class="cls-1" d="M144.98,17C66.65,17,2.91,80.73,2.91,159.05s63.73,142.07,142.07,142.07h191.33c78.33,0,142.05-63.73,142.05-142.07S414.65,17,336.32,17h-191.33Z"/>
      <path class="cls-1" d="M336.32,304h-191.33C65.05,304,.03,238.98.03,159.05S65.05,14.11,144.98,14.11h191.33c79.92,0,144.94,65.02,144.94,144.94s-65.02,144.95-144.94,144.95M144.98,17C66.65,17,2.91,80.73,2.91,159.05s63.73,142.07,142.07,142.07h191.33c78.33,0,142.05-63.73,142.05-142.07S414.65,17,336.32,17h-191.33Z"/>
      <path class="cls-4" d="M369.76,150.38l63.62,75.67c13.18-19.04,20.92-42.13,20.92-66.99,0-26.24-8.62-50.51-23.17-70.13l-61.37,61.46Z"/>
      <path class="cls-4" d="M189.47,82.54c47.51,0,83.31,12.09,87,52.12l50-52.13h99.57c-21.66-25.35-53.85-41.46-89.73-41.46h-191.33c-35.89,0-68.09,16.1-89.75,41.46h134.23Z"/>
      <path class="cls-4" d="M111.19,133l-16.97,46.65h68.46c20.24,0,26.36-8.38,30.89-24.51,4.48-15.95-6.78-22.14-20.61-22.14h-61.77Z"/>
      <path class="cls-4" d="M326.89,232.41l-52.89-66.83c-9.78,45.57-41.79,66.83-101.8,66.83H52.62c21.63,27.18,55,44.65,92.36,44.65h191.33c37.36,0,70.71-17.45,92.34-44.64h-101.77Z"/>
    </g>
  </g>
</svg>