<svg width="272" height="360" viewBox="0 0 272 360" fill="none" xmlns="http://www.w3.org/2000/svg">
<path d="M249.946 135.202L222.995 301.689" stroke="#638C3E" stroke-width="4"/>
<path d="M24.908 44.0701L27.6031 22.0352M24.908 44.0701C19.0687 45.7023 4.69506 48.5315 4.69506 54.4075L2 78.3467M24.908 44.0701L23.5605 51.4151C59.4947 66.0858 154.002 86.4965 244.556 50.7741L243.208 44.0701M240.513 22.0352L243.208 44.0701M243.208 44.0701C248.149 45.2943 266.809 48.0267 263.421 51.9592M263.421 51.9592C212.215 111.399 27.6031 85.0116 6.04259 57.6317M263.421 51.9592L268.811 71.0017C217.605 130.442 23.5605 104.502 2 77.1225M11.4327 84.2325L20.8654 140.099C66.2324 157.827 175.562 181.666 249.946 135.202C249.946 132.264 257.582 95.0664 260.726 78.7863M43.7735 274.213C72.97 290.943 152.654 313.141 227.038 272.989" stroke="#638C3E" stroke-width="4"/>
<path d="M20.8647 140.099L46.2694 296.792M46.4679 298.016L46.2694 296.792M46.2694 296.792L53.2055 339.637L55.9006 343.31L65.3333 349.431L76.1136 353.103L89.5889 355.551L105.759 358H120.582H136.752L165.051 356.776L177.178 355.007L189.306 353.103L206.824 345.758C210.418 344.126 217.604 340.127 217.604 337.189C217.604 334.251 221.198 311.482 222.995 300.464" stroke="#638C3E" stroke-width="4"/>
<path d="M239.861 22.0349C239.861 22.8449 239.468 23.8511 238.257 25.0607C237.041 26.2755 235.143 27.5434 232.519 28.8112C227.281 31.3425 219.573 33.6765 209.886 35.6565C190.545 39.6099 163.735 42.0699 134.058 42.0699C104.382 42.0699 77.5721 39.6099 58.231 35.6565C48.544 33.6765 40.8358 31.3425 35.5977 28.8112C32.9743 27.5434 31.0756 26.2755 29.8594 25.0607C28.6485 23.8511 28.2559 22.8449 28.2559 22.0349C28.2559 21.225 28.6485 20.2187 29.8594 19.0091C31.0756 17.7944 32.9743 16.5265 35.5977 15.2587C40.8358 12.7274 48.544 10.3934 58.231 8.41337C77.5721 4.46003 104.382 2 134.058 2C163.735 2 190.545 4.46003 209.886 8.41337C219.573 10.3934 227.281 12.7274 232.519 15.2587C235.143 16.5265 237.041 17.7944 238.257 19.0091C239.468 20.2187 239.861 21.225 239.861 22.0349Z" stroke="#638C3E" stroke-width="4"/>
</svg>
