<svg width="20" height="20" viewBox="0 0 20 20" fill="none" xmlns="http://www.w3.org/2000/svg">
<path d="M9.78546 2C8.59443 2.35644 8.67617 3.50165 8.86592 4.0297C8.58567 4.05611 7.97069 4.42574 7.69823 4.60726C6.3554 5.74587 6.32621 7.033 6.19485 7.41254C6.08975 7.71617 5.83968 9.50825 5.72777 10.3663C5.61101 11.1452 5.20232 11.857 5.01257 12.1155C4.97365 12.1265 4.80239 12.2442 4.42873 12.6271C4.05507 13.0099 4.00058 13.6117 4.02004 13.8647C3.91495 14.7888 4.24871 15.0858 4.42873 15.1188H8.32586C8.39592 16.3861 9.23081 16.901 9.6395 17H10.3547C11.3706 16.7096 11.6635 15.6249 11.6829 15.1188H15.5217C15.7085 15.0528 15.9012 14.7723 15.9742 14.6403C16.0082 14.2992 16.0355 13.5182 15.872 13.1221C15.7085 12.7261 15.1908 12.264 14.9524 12.0825C14.753 11.813 14.3277 11.0198 14.2226 10.0033C14.1176 8.9868 13.8577 7.58856 13.741 7.0165C13.2506 4.9571 11.8046 4.14521 11.1429 3.9967C11.5399 2.71617 10.6855 2.13201 10.2087 2H9.78546Z" fill="black"/>
<path d="M9.6395 4.82178H10.3547C10.5532 4.82178 10.8656 4.92079 10.9969 4.9703C11.211 5.0418 11.753 5.30363 12.2084 5.77888C12.6638 6.25413 12.9041 7.14301 12.9674 7.52805C13.0725 7.75248 13.2642 9.33773 13.3469 10.1023C13.3702 10.7228 13.7848 11.78 13.9891 12.231C14.0358 12.4158 14.7286 13.1221 15.0692 13.4521C15.151 13.5446 15.1811 13.9857 15.186 14.1947H4.82282C4.82282 13.7063 4.9104 13.4631 4.95419 13.4026C5.81827 12.6238 6.06348 12.209 6.07808 12.099C6.24836 11.681 6.61521 10.604 6.7203 9.64026C6.82539 8.67657 6.99763 7.78658 7.07061 7.46205C7.10564 6.94719 7.41604 6.35644 7.56687 6.12541C7.63985 6.0044 7.87922 5.68317 8.25288 5.36634C8.62654 5.0495 9.33299 4.87129 9.6395 4.82178Z" fill="black"/>
<path d="M9.93142 2.94059H10.092C10.3022 3.0066 10.3839 3.23212 10.3985 3.33663V3.50165C10.3401 3.75248 10.1504 3.83718 10.0628 3.84818H9.88763C9.77087 3.77668 9.54901 3.57096 9.59571 3.32013C9.64242 3.06931 9.83898 2.9626 9.93142 2.94059Z" fill="black"/>
<path d="M10.8072 15.1518H9.20162C9.20162 15.6667 9.58112 15.9494 9.77087 16.0264H10.2233C10.6671 15.8944 10.7975 15.3883 10.8072 15.1518Z" fill="black"/>
<circle cx="10" cy="10" r="9.5" stroke="black"/>
</svg>
